<svg width="27" height="27" viewBox="0 0 27 27" fill="none" xmlns="http://www.w3.org/2000/svg">
<path d="M5.07027 19.4258C3.99205 19.7198 3.35938 20.8248 3.64453 21.903C3.93859 22.9812 5.04354 23.6139 6.12175 23.3287C7.19997 23.0347 7.83264 21.9297 7.54749 20.8515C7.25343 19.7733 6.14849 19.1406 5.07027 19.4258Z" fill="#35393D"/>
<path d="M20.8961 19.4168C19.8178 19.702 19.1762 20.8159 19.4703 21.8941C19.7555 22.9723 20.8693 23.6139 21.9475 23.3198C23.0258 23.0257 23.6673 21.9208 23.3733 20.8426C23.0792 19.7644 21.9743 19.1228 20.8961 19.4168Z" fill="#35393D"/>
<path d="M20.8871 3.58215C19.8089 3.87621 19.1762 4.98116 19.4614 6.05938C19.7555 7.1376 20.8604 7.77027 21.9386 7.48512C23.0168 7.19106 23.6495 6.08611 23.3644 5.00789C23.0703 3.93858 21.9564 3.297 20.8871 3.58215Z" fill="#35393D"/>
<path d="M5.06139 3.60001C3.98317 3.89407 3.3505 4.99902 3.63565 6.07724C3.92971 7.15545 5.03466 7.78813 6.11288 7.50298C7.1911 7.20892 7.82377 6.10397 7.53862 5.02575C7.24456 3.94753 6.1307 3.30595 5.06139 3.60001Z" fill="#35393D"/>
<path d="M7.18218 11.5129C6.10397 11.798 5.46238 12.9119 5.75644 13.9901C6.04159 15.0683 7.15545 15.7099 8.23366 15.4158C9.31188 15.1218 9.95346 14.0168 9.65941 12.9386C9.36535 11.8693 8.2604 11.2277 7.18218 11.5129Z" fill="#35393D"/>
<path d="M18.7753 11.495C17.697 11.7802 17.0555 12.894 17.3495 13.9722C17.6347 15.0505 18.7485 15.692 19.8267 15.398C20.905 15.1039 21.5465 13.999 21.2525 12.9208C20.9584 11.8425 19.8535 11.2099 18.7753 11.495Z" fill="#35393D"/>
<path d="M12.9832 17.2961C11.905 17.5901 11.2723 18.6951 11.5574 19.7733C11.8515 20.8515 12.9564 21.4842 14.0347 21.199C15.1129 20.905 15.7455 19.8 15.4604 18.7218C15.1663 17.6436 14.0614 17.0109 12.9832 17.2961Z" fill="#35393D"/>
<path d="M12.9564 5.71185C11.8782 6.00591 11.2456 7.11086 11.5307 8.18908C11.8158 9.26729 12.9297 9.89997 14.0079 9.61482C15.0861 9.32076 15.7188 8.21581 15.4337 7.13759C15.1396 6.06828 14.0347 5.4267 12.9564 5.71185Z" fill="#35393D"/>
<path d="M17.7861 6.51385C18.3297 8.5188 20.3881 9.70395 22.3931 9.16039C22.705 9.07128 23.0079 8.94653 23.2931 8.78613C23.4267 8.71484 23.5604 8.65247 23.7119 8.61682C24.6743 8.3495 25.8059 8.85742 26.1891 9.78415C26.6079 10.8178 26.1089 11.9941 25.0752 12.4129C24.1218 12.796 23.0347 12.4129 22.5446 11.504C22.4465 11.3168 22.3396 11.1475 22.2059 10.9782C20.8426 9.38316 18.4455 9.18712 16.8505 10.5505C15.2554 11.9139 15.0594 14.3109 16.4228 15.9059C17.7861 17.501 20.1832 17.697 21.7782 16.3337C21.9297 16.2089 22.0723 16.0663 22.197 15.9148C22.3396 15.7455 22.4555 15.5584 22.5624 15.3624C23.1149 14.4 24.3446 14.0703 25.298 14.6228C26.2515 15.1752 26.5901 16.4049 26.0376 17.3584C25.4852 18.3119 24.2733 18.6505 23.3109 18.098C21.5109 17.0644 19.2208 17.6792 18.1871 19.4792C17.5188 20.6376 17.5188 22.0723 18.1871 23.2307C18.2584 23.3554 18.3119 23.4891 18.3475 23.6317C18.6327 24.6564 18.0891 25.8059 17.0911 26.1535C16.0396 26.5277 14.8901 25.9752 14.5158 24.9238C14.1861 23.9881 14.5782 22.9544 15.4515 22.4822C15.6386 22.3842 15.8168 22.2683 15.9772 22.1346C17.5812 20.7802 17.7772 18.3832 16.4139 16.7792C15.0594 15.1752 12.6624 14.9792 11.0584 16.3426C9.45445 17.697 9.25841 20.0941 10.6218 21.698C10.7287 21.8317 10.8535 21.9564 10.9782 22.0634C11.1743 22.2327 11.3792 22.3752 11.6109 22.4911C12.5644 23.0525 12.8941 24.2733 12.3327 25.2356C11.7713 26.1891 10.5505 26.5188 9.58812 25.9574C8.63465 25.4049 8.31386 24.1931 8.84851 23.2396C9.88217 21.4396 9.26732 19.1495 7.46732 18.1158C6.30891 17.4475 4.87425 17.4475 3.71583 18.1158C3.55544 18.196 3.39504 18.2584 3.21683 18.303C2.13861 18.597 1.03366 17.9554 0.739596 16.8772C0.445537 15.799 1.08712 14.6941 2.16534 14.4C3.07425 14.1505 4.03663 14.5693 4.47326 15.4069C4.56237 15.5941 4.67821 15.7634 4.81188 15.9238C6.17524 17.5188 8.57227 17.7059 10.1673 16.3515C11.7624 14.9881 11.9495 12.5911 10.595 10.996C9.24059 9.40098 6.83465 9.21385 5.2396 10.5683C5.08811 10.702 4.94554 10.8445 4.81188 10.996C4.67821 11.1653 4.55346 11.3436 4.45544 11.5396C3.90296 12.502 2.67326 12.8228 1.71979 12.2703C0.757418 11.7178 0.436626 10.4881 0.989101 9.53465C1.54158 8.58118 2.75346 8.25148 3.71583 8.79504C5.51584 9.8287 7.80594 9.21385 8.8396 7.41385C9.50792 6.25544 9.50792 4.82078 8.8396 3.66237C8.76831 3.53761 8.72376 3.40395 8.6792 3.27029C8.36732 2.19207 8.96435 1.00692 10.0515 0.695039C11.1208 0.392068 12.2436 1.00692 12.5465 2.08514C12.8049 3.00296 12.395 3.97425 11.5574 4.41979C11.3703 4.51781 11.1921 4.62474 11.0317 4.75841C9.43663 6.11286 9.23168 8.50989 10.595 10.1139C11.9495 11.7089 14.3465 11.9139 15.9505 10.5505C17.5455 9.19603 17.7505 6.799 16.3871 5.19504C16.3069 5.10593 16.2356 5.01682 16.1465 4.93662C15.9059 4.71385 15.6475 4.52672 15.3624 4.36633C14.4 3.79603 14.0881 2.55742 14.6584 1.59504C15.2287 0.632662 16.4673 0.320781 17.4297 0.891078C17.8842 1.15841 18.2139 1.59504 18.3475 2.10296C18.4901 2.61979 18.4277 3.17227 18.1693 3.64454C17.6614 4.52672 17.5277 5.55148 17.7861 6.51385Z" fill="#02BFF1"/>
</svg>
