<svg width="70" height="46" viewBox="0 0 70 46" fill="none" xmlns="http://www.w3.org/2000/svg">
<path d="M7.19723 30.1988C11.1721 30.1988 14.3944 26.9765 14.3944 23.0016C14.3944 19.0267 11.1721 15.8044 7.19723 15.8044C3.22232 15.8044 1.52588e-05 19.0267 1.52588e-05 23.0016C1.52588e-05 26.9765 3.22232 30.1988 7.19723 30.1988Z" fill="#F8C04D"/>
<path d="M48.9086 0.0041412C47.16 0.000742449 45.4705 0.636423 44.1579 1.79159C41.6257 4.01864 38.3672 5.24405 34.9951 5.23747C31.6229 5.23088 28.3693 3.99276 25.8458 1.75584C24.801 0.851412 23.518 0.266843 22.1499 0.071951C20.7819 -0.122941 19.3866 0.0800826 18.1308 0.656774C16.875 1.23347 15.8118 2.15945 15.0681 3.32412C14.3244 4.4888 13.9317 5.84293 13.9368 7.22479C13.9419 8.60665 14.3448 9.95782 15.0971 11.1169C15.8495 12.276 16.9196 13.1941 18.1796 13.7614C19.4397 14.3287 20.8364 14.5213 22.203 14.3162C23.5695 14.1112 24.8482 13.5171 25.8862 12.6049C28.412 10.385 31.6597 9.16065 35.0224 9.16065C38.3851 9.16065 41.6328 10.385 44.1586 12.6049C45.033 13.3731 46.0806 13.9179 47.2117 14.1924C48.3428 14.4669 49.5236 14.463 50.6528 14.181C51.7821 13.8991 52.8261 13.3474 53.6953 12.5734C54.5646 11.7994 55.2332 10.8262 55.6438 9.73707C56.0543 8.64798 56.1947 7.47556 56.0527 6.32033C55.9107 5.16511 55.4907 4.06155 54.8286 3.10428C54.1666 2.14701 53.2822 1.36459 52.2514 0.8241C51.2206 0.283611 50.0741 0.00118329 48.9101 0.00103193L48.9086 0.0041412Z" fill="#EA5647"/>
<path d="M62.7466 15.8044C60.9981 15.801 59.3085 16.4367 57.9959 17.5919C55.4644 19.82 52.2062 21.0466 48.8339 21.0412C45.4615 21.0358 42.2073 19.7986 39.683 17.5623C38.6383 16.6579 37.3552 16.0733 35.9871 15.8785C34.6191 15.6836 33.2238 15.8866 31.9681 16.4633C30.7123 17.04 29.649 17.966 28.9053 19.1306C28.1616 20.2953 27.7689 21.6494 27.774 23.0313C27.7792 24.4131 28.182 25.7643 28.9344 26.9234C29.6867 28.0825 30.7568 29.0006 32.0169 29.5679C33.2769 30.1352 34.6736 30.3278 36.0402 30.1227C37.4068 29.9177 38.6854 29.3236 39.7235 28.4114C42.2493 26.1915 45.497 24.9672 48.8597 24.9672C52.2224 24.9672 55.47 26.1915 57.9959 28.4114C58.8702 29.1796 59.9179 29.7244 61.0489 29.9989C62.18 30.2734 63.3608 30.2695 64.49 29.9875C65.6193 29.7056 66.6633 29.1539 67.5326 28.3799C68.4018 27.6059 69.0704 26.6327 69.481 25.5436C69.8916 24.4545 70.0319 23.2821 69.8899 22.1268C69.7479 20.9716 69.3279 19.8681 68.6659 18.9108C68.0038 17.9535 67.1194 17.1711 66.0886 16.6306C65.0578 16.0901 63.9113 15.8077 62.7474 15.8075L62.7466 15.8044Z" fill="#0ABFF1"/>
<path d="M48.8588 31.6057C47.1105 31.6024 45.4213 32.2381 44.1088 33.3931C41.5761 35.6193 38.3177 36.8441 34.9456 36.8375C31.5736 36.8309 28.32 35.5934 25.796 33.3573C24.7511 32.453 23.468 31.8685 22.1 31.6737C20.7319 31.4789 19.3367 31.6821 18.0809 32.2588C16.8252 32.8356 15.762 33.7617 15.0184 34.9264C14.2748 36.0911 13.8821 37.4453 13.8874 38.8271C13.8926 40.209 14.2955 41.5601 15.048 42.7192C15.8004 43.8782 16.8706 44.7962 18.1307 45.3634C19.3908 45.9306 20.7875 46.1231 22.154 45.918C23.5206 45.7128 24.7992 45.1186 25.8372 44.2063C28.3628 41.9861 31.6106 40.7616 34.9734 40.7616C38.3362 40.7616 41.5839 41.9861 44.1096 44.2063C44.9838 44.9755 46.0315 45.521 47.1629 45.7962C48.2943 46.0713 49.4755 46.0679 50.6053 45.7861C51.7351 45.5044 52.7796 44.9527 53.6493 44.1785C54.5189 43.4043 55.1878 42.4307 55.5985 41.3411C56.0091 40.2516 56.1493 39.0787 56.0069 37.923C55.8646 36.7674 55.444 35.6636 54.7813 34.7062C54.1185 33.7489 53.2334 32.9667 52.2019 32.4266C51.1703 31.8866 50.0231 31.6049 48.8588 31.6057Z" fill="#8DC754"/>
</svg>
